<?xml version="1.0" encoding="UTF-8"?>
<svg version="1.1" xmlns="http://www.w3.org/2000/svg" width="1024" height="1024">
<path d="M0 0 C337.92 0 675.84 0 1024 0 C1024 337.92 1024 675.84 1024 1024 C686.08 1024 348.16 1024 0 1024 C0 686.08 0 348.16 0 0 Z " fill="#FCFCFC" transform="translate(0,0)"/>
<path d="M0 0 C1.32 0 2.64 0 4 0 C4.79585256 10.687163 5.12825004 21.28399677 5 32 C5.66 32 6.32 32 7 32 C7 36.62 7 41.24 7 46 C7.66 46 8.32 46 9 46 C9.33 52.27 9.66 58.54 10 65 C10.66 65 11.32 65 12 65 C12.33 69.95 12.66 74.9 13 80 C13.66 80 14.32 80 15 80 C15.33 84.62 15.66 89.24 16 94 C16.66 94 17.32 94 18 94 C18.19335938 94.86882812 18.38671875 95.73765625 18.5859375 96.6328125 C18.97652344 98.36144531 18.97652344 98.36144531 19.375 100.125 C19.63023438 101.26195312 19.88546875 102.39890625 20.1484375 103.5703125 C20.94418762 106.98801762 20.94418762 106.98801762 22.09375 110.1875 C23.18019753 113.55923371 23.14079671 116.48008218 23 120 C23.66 120 24.32 120 25 120 C25 121.98 25 123.96 25 126 C25.66 126 26.32 126 27 126 C27 127.98 27 129.96 27 132 C27.66 132 28.32 132 29 132 C29.24234375 132.99 29.4846875 133.98 29.734375 135 C31.31446701 141.28452925 32.83289923 147.29847808 36.0078125 152.99609375 C37.25317225 155.5113282 38.0386247 158.07152538 38.875 160.75 C40.60640597 166.14791272 42.88057107 171.02584854 45.48828125 176.05078125 C47.40673308 179.79349735 49.11764651 183.61379088 50.83203125 187.453125 C51.92740179 189.8416922 53.1002737 192.16912276 54.3125 194.5 C56 198 56 198 56 201 C56.66 201 57.32 201 58 201 C58.24645264 201.53890869 58.49290527 202.07781738 58.74682617 202.63305664 C59.88619278 205.11307354 61.03674869 207.58774639 62.1875 210.0625 C62.57486328 210.91005859 62.96222656 211.75761719 63.36132812 212.63085938 C65.24220599 216.65687068 67.138985 220.36481507 69.80078125 223.93359375 C72 227 72 227 72 230 C72.66 230 73.32 230 74 230 C74.83819158 231.62249941 75.6704116 233.24808497 76.5 234.875 C76.9640625 235.77992188 77.428125 236.68484375 77.90625 237.6171875 C79 240 79 240 79 242 C79.66 242 80.32 242 81 242 C82.09741211 243.42114258 82.09741211 243.42114258 83.27734375 245.39453125 C83.70853516 246.10287109 84.13972656 246.81121094 84.58398438 247.54101562 C85.03064453 248.29060547 85.47730469 249.04019531 85.9375 249.8125 C86.81778793 251.27964654 87.70178299 252.7445765 88.58984375 254.20703125 C88.98034912 254.8616333 89.37085449 255.51623535 89.77319336 256.19067383 C91.02301226 258.03393907 92.42958067 259.43010775 94 261 C94.8988109 262.63117534 95.79665345 264.26289892 96.6875 265.8984375 C98.8852328 269.41742632 101.6121706 272.50970005 104.29296875 275.66796875 C106 278 106 278 106.48828125 280.17578125 C106.74158203 281.07876953 106.74158203 281.07876953 107 282 C108.31034478 282.71078744 109.64678705 283.37467054 111 284 C112.45703125 285.6640625 112.45703125 285.6640625 113.8125 287.625 C116.50839784 291.40063244 119.44464164 294.82385945 122.58203125 298.23828125 C124 300 124 300 125 303 C126.61978556 304.71226467 128.29371084 306.37392102 130 308 C131.62634019 309.60280794 133.25133056 311.20698661 134.875 312.8125 C135.67679688 313.60269531 136.47859375 314.39289063 137.3046875 315.20703125 C139.39036721 317.36827907 141.36415494 319.54925967 143.32421875 321.8203125 C147.02226056 326.08208019 150.93730687 330.08545167 154.9375 334.0625 C155.60201172 334.73087891 156.26652344 335.39925781 156.95117188 336.08789062 C161.4685151 340.59647082 166.15031994 344.85254787 171 349 C172.6692439 350.43450648 174.33647974 351.87136005 176 353.3125 C177.1446875 354.29669922 177.1446875 354.29669922 178.3125 355.30078125 C180 357 180 357 180 359 C180.83917969 359.11601563 180.83917969 359.11601563 181.6953125 359.234375 C184.80014861 360.26581208 186.49890324 362.01454448 188.875 364.25 C189.75285156 365.06210937 190.63070312 365.87421875 191.53515625 366.7109375 C192.34855469 367.46632813 193.16195312 368.22171875 194 369 C196.68797503 371.38028026 199.33379306 373.60710873 202.4375 375.4375 C205.35820939 377.21842036 207.74580471 379.33702488 210.30859375 381.58984375 C212.39725293 383.33119702 214.66036218 384.62021359 217 386 C218.05360962 386.8605819 219.09479042 387.73653916 220.125 388.625 C222.8167087 391.13912472 222.8167087 391.13912472 226 392 C226 392.66 226 393.32 226 394 C226.69480469 394.24621094 227.38960937 394.49242187 228.10546875 394.74609375 C231.45550521 396.19732412 234.273787 398.03788159 237.3125 400.0625 C243.17010863 403.91077613 249.1596545 407.42487018 255.29125977 410.81665039 C259.93762345 413.38808292 264.48884948 416.07689828 268.984375 418.90625 C270.9939635 419.99672438 272.76574369 420.55717442 275 421 C275 421.66 275 422.32 275 423 C275.54140625 423.11214844 276.0828125 423.22429687 276.640625 423.33984375 C279.50028221 424.13997963 282.05743708 425.3123815 284.75 426.5625 C285.73484375 427.01753906 286.7196875 427.47257812 287.734375 427.94140625 C288.48203125 428.29074219 289.2296875 428.64007812 290 429 C290 429.66 290 430.32 290 431 C290.71542969 431.12246094 291.43085938 431.24492188 292.16796875 431.37109375 C295.05112713 432.01135375 297.58592473 432.93551556 300.3125 434.0625 C301.19550781 434.42472656 302.07851563 434.78695313 302.98828125 435.16015625 C303.65214844 435.43730469 304.31601562 435.71445312 305 436 C305 436.66 305 437.32 305 438 C306.051875 438.103125 307.10375 438.20625 308.1875 438.3125 C311.93485437 438.98825243 313.86457358 439.96620989 317 442 C319.19130534 442.69579454 319.19130534 442.69579454 321 443 C321 443.66 321 444.32 321 445 C321.86625 445.12503906 322.7325 445.25007813 323.625 445.37890625 C326.89888899 445.98139277 329.85667168 446.85288802 333 447.9375 C333.99 448.27652344 334.98 448.61554688 336 448.96484375 C336.99 449.30644531 337.98 449.64804687 339 450 C340.99930471 450.66874891 342.99910854 451.3360137 345 452 C345 452.66 345 453.32 345 454 C346.65 454 348.3 454 350 454 C350 454.66 350 455.32 350 456 C353.96 456.33 357.92 456.66 362 457 C362 457.66 362 458.32 362 459 C363.98 459 365.96 459 368 459 C368 459.66 368 460.32 368 461 C370.31 461 372.62 461 375 461 C375 461.66 375 462.32 375 463 C376.98 463 378.96 463 381 463 C381 463.66 381 464.32 381 465 C385.29 465.33 389.58 465.66 394 466 C394 466.66 394 467.32 394 468 C396.31 468 398.62 468 401 468 C401 468.66 401 469.32 401 470 C402.7634375 469.9690625 402.7634375 469.9690625 404.5625 469.9375 C408.47413467 469.93052739 412.14497944 470.35749657 416 471 C416 471.66 416 472.32 416 473 C416.60585938 472.98839844 417.21171875 472.97679687 417.8359375 472.96484375 C423.95924948 472.89890039 429.92093331 473.27568567 436 474 C436 474.66 436 475.32 436 476 C437.14339844 475.98839844 438.28679687 475.97679687 439.46484375 475.96484375 C440.95572754 475.95546712 442.44661309 475.94636679 443.9375 475.9375 C444.69224609 475.92912109 445.44699219 475.92074219 446.22460938 475.91210938 C448.14994313 475.90347559 450.07535581 475.94775667 452 476 C452.33 476.33 452.66 476.66 453 477 C454.41327947 477.15620555 455.8335459 477.25056173 457.25390625 477.31640625 C458.10791016 477.35830078 458.96191406 477.40019531 459.84179688 477.44335938 C461.18854492 477.50233398 461.18854492 477.50233398 462.5625 477.5625 C463.46419922 477.60568359 464.36589844 477.64886719 465.29492188 477.69335938 C467.52978485 477.79978142 469.76476308 477.90179988 472 478 C472 478.99 472 479.98 472 481 C316.24 481 160.48 481 0 481 C0 322.27 0 163.54 0 0 Z " fill="#000000" transform="translate(0,543)"/>
<path d="M0 0 C155.43 0 310.86 0 471 0 C471 0.66 471 1.32 471 2 C464.73 2 458.46 2 452 2 C452 2.66 452 3.32 452 4 C442.98865693 4.6331684 434.04028922 5.1723784 425 5 C425 5.66 425 6.32 425 7 C422.03 7 419.06 7 416 7 C416 7.66 416 8.32 416 9 C408.08 9.495 408.08 9.495 400 10 C400 10.66 400 11.32 400 12 C397.69 12 395.38 12 393 12 C393 12.66 393 13.32 393 14 C387.06 14.495 387.06 14.495 381 15 C381 15.66 381 16.32 381 17 C380.01 17.103125 379.02 17.20625 378 17.3125 C375.21738122 17.70206663 372.84764538 18.37482689 370.25 19.4375 C366.03394958 21.1404537 361.80545129 21.81675155 357.3203125 22.47265625 C354.82074278 22.82404838 354.82074278 22.82404838 353 25 C350.87109375 25.59765625 350.87109375 25.59765625 348.4375 26.0625 C345.4322803 26.46477866 345.4322803 26.46477866 343 28 C341.33382885 28.04063832 339.66611905 28.042721 338 28 C338 28.66 338 29.32 338 30 C336.68 30 335.36 30 334 30 C334 30.66 334 31.32 334 32 C333.03578125 32.26554687 332.0715625 32.53109375 331.078125 32.8046875 C329.81484375 33.15789063 328.5515625 33.51109375 327.25 33.875 C325.99703125 34.22304688 324.7440625 34.57109375 323.453125 34.9296875 C320.14147314 35.84671388 320.14147314 35.84671388 317.796875 37.1328125 C316 38 316 38 312 38 C312 38.66 312 39.32 312 40 C310.845 40.4125 309.69 40.825 308.5 41.25 C303.4664402 43.13312255 298.69298018 45.47857222 294.015625 48.12109375 C292 49 292 49 288 49 C288 49.66 288 50.32 288 51 C286.68 51 285.36 51 284 51 C283.67 51.99 283.34 52.98 283 54 C279.535 54.495 279.535 54.495 276 55 C276 55.66 276 56.32 276 57 C274.68 57 273.36 57 272 57 C272 57.66 272 58.32 272 59 C271.01 59 270.02 59 269 59 C269 59.66 269 60.32 269 61 C267.39967863 61.84069415 265.79458829 62.67231505 264.1875 63.5 C262.84751953 64.19609375 262.84751953 64.19609375 261.48046875 64.90625 C259 66 259 66 256 66 C256 66.66 256 67.32 256 68 C255.01 68.33 254.02 68.66 253 69 C252.67 69.66 252.34 70.32 252 71 C249.6748281 72.07315626 247.37828878 73.06370526 245 74 C244.030625 74.391875 243.06125 74.78375 242.0625 75.1875 C241.381875 75.455625 240.70125 75.72375 240 76 C240 76.66 240 77.32 240 78 C239.030625 78.45375 238.06125 78.9075 237.0625 79.375 C233.92920418 80.65786221 233.92920418 80.65786221 233 83 C230.66666667 84 228.33333333 85 226 86 C225.67 86.66 225.34 87.32 225 88 C223.36917835 88.91733718 221.73694734 89.83225999 220.09765625 90.734375 C214.88751313 93.87792504 210.23840852 97.92555598 205.625 101.875 C203 104 203 104 200 105 C198.64522316 106.31153928 197.31540656 107.64897774 196 109 C193.18169309 111.32974654 190.32329672 113.60359925 187.4609375 115.87890625 C184.8451758 117.94178575 184.8451758 117.94178575 183 121 C182.401875 121.12375 181.80375 121.2475 181.1875 121.375 C177.90407946 122.31312016 176.3532613 124.55544839 174 127 C172.1091975 128.94245658 170.21113337 130.87770219 168.3125 132.8125 C167.58450195 133.56563477 167.58450195 133.56563477 166.84179688 134.33398438 C165.59875394 135.59417273 164.30300108 136.80191044 163 138 C162.34 138 161.68 138 161 138 C161 138.66 161 139.32 161 140 C160.34 140 159.68 140 159 140 C159 140.66 159 141.32 159 142 C157.390625 143.55078125 157.390625 143.55078125 155.25 145.3125 C152.07666258 148.00233417 149.58978658 150.7418814 147 154 C145.91195371 154.95616189 144.80591008 155.89203861 143.6875 156.8125 C140.36479195 159.57671031 137.62778611 162.61646471 134.83984375 165.91015625 C132.25101864 168.85075377 129.43818196 171.53856427 126.6015625 174.23828125 C124.77095443 176.01353029 124.77095443 176.01353029 124 179 C123.21625 179.61875 122.4325 180.2375 121.625 180.875 C118.93553374 182.80395644 118.93553374 182.80395644 117.59375 185.34375 C115.41729097 188.97118172 112.61583058 191.82989611 109.7421875 194.9140625 C107.80538616 196.97479591 107.80538616 196.97479591 107 200 C105.69311677 201.35926884 104.3565589 202.69030404 103 204 C97.33119763 210.76891242 91.82374078 218.01143358 88 226 C87.34 226 86.68 226 86 226 C85.896875 226.598125 85.79375 227.19625 85.6875 227.8125 C85 230 85 230 83.625 231.3125 C81.60701001 233.40810499 80.57015141 235.57022544 79.3125 238.1875 C78.87550781 239.08855469 78.43851562 239.98960937 77.98828125 240.91796875 C77.66214844 241.60503906 77.33601563 242.29210937 77 243 C76.34 243 75.68 243 75 243 C74.71125 243.9075 74.4225 244.815 74.125 245.75 C73.23468224 248.32202908 72.28505587 250.61346766 71 253 C70.34 253 69.68 253 69 253 C68.67 254.65 68.34 256.3 68 258 C67.34 258 66.68 258 66 258 C65.80966187 258.86286621 65.80966187 258.86286621 65.61547852 259.74316406 C64.9940536 262.02180427 64.16867949 263.97990965 63.15234375 266.109375 C62.61577148 267.24052734 62.61577148 267.24052734 62.06835938 268.39453125 C61.69517578 269.17183594 61.32199219 269.94914062 60.9375 270.75 C60.37192383 271.93916016 60.37192383 271.93916016 59.79492188 273.15234375 C58.86654161 275.10311746 57.93370456 277.05176906 57 279 C56.34 279 55.68 279 55 279 C54.81244141 279.8353125 54.81244141 279.8353125 54.62109375 280.6875 C53.94143675 283.21804683 53.0438023 285.57081392 52.0625 288 C51.72347656 288.845625 51.38445313 289.69125 51.03515625 290.5625 C50.10255158 292.75852004 49.09400759 294.88066691 48 297 C47.34 297 46.68 297 46 297 C45.938125 297.969375 45.87625 298.93875 45.8125 299.9375 C45.36163925 303.15793392 44.34551939 305.40039992 42.6875 308.1875 C39.53491155 313.50863194 37.81782914 319.11785419 36 325 C35.33751888 327.00139032 34.67199288 329.00178329 34 331 C33.34 331 32.68 331 32 331 C32 332.65 32 334.3 32 336 C31.34 336 30.68 336 30 336 C29.67 339.3 29.34 342.6 29 346 C28.34 346 27.68 346 27 346 C27.04125 346.680625 27.0825 347.36125 27.125 348.0625 C26.97450035 351.59924168 26.05624147 354.63323033 25 358 C24.34 358 23.68 358 23 358 C23 359.98 23 361.96 23 364 C22.34 364 21.68 364 21 364 C21.04125 364.845625 21.0825 365.69125 21.125 366.5625 C20.98749685 370.3438365 20.07911873 373.38177838 19 377 C18.63049535 379.32787927 18.28647533 381.66045145 18 384 C17.34 384 16.68 384 16 384 C16 386.31 16 388.62 16 391 C15.34 391 14.68 391 14 391 C13.67 395.62 13.34 400.24 13 405 C12.34 405 11.68 405 11 405 C10.505 412.92 10.505 412.92 10 421 C9.34 421 8.68 421 8 421 C8.01160156 421.63164062 8.02320313 422.26328125 8.03515625 422.9140625 C8.11293567 430.62533687 7.87469188 438.33294773 7 446 C6.67 446.33 6.34 446.66 6 447 C5.76321284 449.69235776 5.57801975 452.36498156 5.4375 455.0625 C5.37272461 456.20041992 5.37272461 456.20041992 5.30664062 457.36132812 C5.20026367 459.24065438 5.09960066 461.12030244 5 463 C4.34 463 3.68 463 3 463 C3 467.95 3 472.9 3 478 C2.01 478 1.02 478 0 478 C0 320.26 0 162.52 0 0 Z " fill="#000000" transform="translate(0,0)"/>
<path d="M0 0 C0.66 0 1.32 0 2 0 C2 153.45 2 306.9 2 465 C-151.78 465 -305.56 465 -464 465 C-464 464.01 -464 463.02 -464 462 C-457.4 462 -450.8 462 -444 462 C-444 461.34 -444 460.68 -444 460 C-439.05 460 -434.1 460 -429 460 C-429 459.34 -429 458.68 -429 458 C-428.28972656 457.93941406 -427.57945312 457.87882812 -426.84765625 457.81640625 C-425.92855469 457.73261719 -425.00945313 457.64882813 -424.0625 457.5625 C-423.14597656 457.48128906 -422.22945312 457.40007812 -421.28515625 457.31640625 C-419.03840268 457.23955024 -419.03840268 457.23955024 -418 456 C-416.31773522 455.73778502 -414.62655036 455.53230929 -412.93359375 455.3515625 C-411.89009766 455.23296875 -410.84660156 455.114375 -409.77148438 454.9921875 C-407.57668917 454.7504643 -405.38137932 454.51336202 -403.18554688 454.28125 C-396.97598065 453.56637036 -391.75127777 452.45060219 -386 450 C-381.96647069 448.9178336 -378.16731559 448.91828793 -374 449 C-374 448.34 -374 447.68 -374 447 C-372.71416016 446.72736328 -372.71416016 446.72736328 -371.40234375 446.44921875 C-364.16392954 444.96007711 -364.16392954 444.96007711 -357.25 442.4375 C-354.54949816 441.24304727 -352.41243773 440.58547108 -349.5625 440 C-346.02981735 439.27216086 -342.78153788 438.24730207 -339.421875 436.91015625 C-336.8392684 435.93959603 -334.22487033 435.09785005 -331.59741211 434.2578125 C-325.45740246 432.28790224 -319.69301381 430.08502502 -314.05078125 426.91796875 C-312 426 -312 426 -308 426 C-308 425.34 -308 424.68 -308 424 C-307.39671875 423.80664062 -306.7934375 423.61328125 -306.171875 423.4140625 C-305.37265625 423.15367187 -304.5734375 422.89328125 -303.75 422.625 C-302.56664062 422.24214844 -302.56664062 422.24214844 -301.359375 421.8515625 C-298.99751144 421.05887299 -298.99751144 421.05887299 -296.890625 419.8984375 C-295 419 -295 419 -292 419 C-292 418.34 -292 417.68 -292 417 C-291.31292969 416.73445313 -290.62585938 416.46890625 -289.91796875 416.1953125 C-288.56638672 415.66550781 -288.56638672 415.66550781 -287.1875 415.125 C-286.29417969 414.77695312 -285.40085937 414.42890625 -284.48046875 414.0703125 C-281.82288409 413.01167845 -281.82288409 413.01167845 -279 411 C-278.01 411 -277.02 411 -276 411 C-276 410.34 -276 409.68 -276 409 C-273.69 408.67 -271.38 408.34 -269 408 C-269 407.34 -269 406.68 -269 406 C-268.48050781 405.74605469 -267.96101562 405.49210937 -267.42578125 405.23046875 C-264.26124911 403.66867562 -261.18680402 402.11623362 -258.1875 400.25 C-256 399 -256 399 -253 399 C-253 398.34 -253 397.68 -253 397 C-252.46890625 396.74605469 -251.9378125 396.49210937 -251.390625 396.23046875 C-246.96125156 394.08867061 -246.96125156 394.08867061 -242.875 391.375 C-240.42438174 389.57787994 -237.89538953 388.855456 -235 388 C-235 387.34 -235 386.68 -235 386 C-233.35 385.67 -231.7 385.34 -230 385 C-230 384.34 -230 383.68 -230 383 C-228.02 382.34 -226.04 381.68 -224 381 C-224 380.34 -224 379.68 -224 379 C-216.57142857 374.71428571 -216.57142857 374.71428571 -213 373 C-213 372.34 -213 371.68 -213 371 C-211.36816893 369.94410931 -209.69207001 368.9563874 -208 368 C-206.948125 367.278125 -205.89625 366.55625 -204.8125 365.8125 C-202 364 -202 364 -200 364 C-200 363.34 -200 362.68 -200 362 C-198.35546875 360.81640625 -198.35546875 360.81640625 -196.1875 359.5625 C-193.38847162 357.93610646 -191.22324656 356.34841593 -189 354 C-187.84684608 352.92284941 -186.67982427 351.86037024 -185.5 350.8125 C-184.9121875 350.28269531 -184.324375 349.75289062 -183.71875 349.20703125 C-182 348 -182 348 -179 348 C-178.71125 347.38125 -178.4225 346.7625 -178.125 346.125 C-177 344 -177 344 -175 342 C-174.01 342 -173.02 342 -172 342 C-171.78682129 341.44924805 -171.57364258 340.89849609 -171.35400391 340.33105469 C-169.53586106 337.20093786 -167.01923043 335.07130625 -164.3359375 332.703125 C-157.19749339 326.25764473 -150.37508209 319.52756607 -143.58642578 312.71679688 C-141.6095399 310.73449756 -139.62728961 308.75767367 -137.64453125 306.78125 C-131.5497308 300.68964504 -125.55938975 294.59111384 -120 288 C-117.8729743 285.654729 -115.74119464 283.3142374 -113.6015625 280.98046875 C-111.80283194 278.99290423 -111.80283194 278.99290423 -111 276 C-110.01 275.34 -109.02 274.68 -108 274 C-106.98133771 272.34467377 -105.98189187 270.67739862 -105 269 C-103.4375 267.1875 -103.4375 267.1875 -102 266 C-101.34 266 -100.68 266 -100 266 C-99.7525 265.113125 -99.505 264.22625 -99.25 263.3125 C-97.95035375 259.86843744 -96.51270773 257.66975197 -94 255 C-93.34 255 -92.68 255 -92 255 C-91.896875 254.401875 -91.79375 253.80375 -91.6875 253.1875 C-90.89505679 250.66608978 -89.88056492 249.80534232 -88 248 C-86.82425289 245.90010348 -86.82425289 245.90010348 -86 244 C-85.34 244 -84.68 244 -84 244 C-83.34 242.02 -82.68 240.04 -82 238 C-81.34 238 -80.68 238 -80 238 C-79.773125 237.175 -79.54625 236.35 -79.3125 235.5 C-77.75058943 231.33490514 -75.77149893 227.4999057 -73 224 C-72.34 224 -71.68 224 -71 224 C-71 223.01 -71 222.02 -71 221 C-70.34 221 -69.68 221 -69 221 C-68.88785156 220.27425781 -68.77570313 219.54851562 -68.66015625 218.80078125 C-67.97038613 215.87436007 -66.94489186 213.77712191 -65.4375 211.1875 C-64.98246094 210.39730469 -64.52742188 209.60710937 -64.05859375 208.79296875 C-63.70925781 208.20128906 -63.35992188 207.60960937 -63 207 C-62.34 207 -61.68 207 -61 207 C-60.855625 206.401875 -60.71125 205.80375 -60.5625 205.1875 C-60.1127561 203.43849596 -59.57107659 201.71322977 -59 200 C-58.34 200 -57.68 200 -57 200 C-57 198.68 -57 197.36 -57 196 C-56.34 196 -55.68 196 -55 196 C-55 194.68 -55 193.36 -55 192 C-54.34 192 -53.68 192 -53 192 C-52.34 189.36 -51.68 186.72 -51 184 C-50.34 184 -49.68 184 -49 184 C-49 182.68 -49 181.36 -49 180 C-48.34 180 -47.68 180 -47 180 C-47 178.68 -47 177.36 -47 176 C-46.34 176 -45.68 176 -45 176 C-44.855625 175.4225 -44.71125 174.845 -44.5625 174.25 C-44.04166667 172.16666667 -43.52083333 170.08333333 -43 168 C-42.34 168 -41.68 168 -41 168 C-41 166.68 -41 165.36 -41 164 C-40.34 164 -39.68 164 -39 164 C-38.855625 163.2575 -38.71125 162.515 -38.5625 161.75 C-38.09812508 159.47972261 -37.58136431 157.24240521 -37 155 C-36.34 155 -35.68 155 -35 155 C-34.87109375 154.30132813 -34.7421875 153.60265625 -34.609375 152.8828125 C-32.80275688 144.33611908 -29.90419828 136.26363489 -26.05078125 128.4375 C-24.98110587 125.95617124 -24.43229161 123.66025604 -24 121 C-23.34 121 -22.68 121 -22 121 C-21.95101563 120.35933594 -21.90203125 119.71867188 -21.8515625 119.05859375 C-21.3959855 113.78803915 -20.6402621 109.03013712 -19 104 C-18.34 104 -17.68 104 -17 104 C-17 102.02 -17 100.04 -17 98 C-16.34 98 -15.68 98 -15 98 C-15.0928125 96.63875 -15.0928125 96.63875 -15.1875 95.25 C-15.22204204 89.66570424 -13.47354309 84.34159368 -12 79 C-11.34 79 -10.68 79 -10 79 C-9.67 74.38 -9.34 69.76 -9 65 C-8.34 65 -7.68 65 -7 65 C-7.0309375 63.2365625 -7.0309375 63.2365625 -7.0625 61.4375 C-7.0625 51.0625 -7.0625 51.0625 -5 49 C-4.77428816 47.58879098 -4.60611651 46.16823957 -4.46484375 44.74609375 C-4.37783203 43.89208984 -4.29082031 43.03808594 -4.20117188 42.15820312 C-4.11416016 41.26037109 -4.02714844 40.36253906 -3.9375 39.4375 C-3.80118164 38.08495117 -3.80118164 38.08495117 -3.66210938 36.70507812 C-3.43746077 34.47041566 -3.21694231 32.23542161 -3 30 C-2.34 30 -1.68 30 -1 30 C-1.01160156 29.175 -1.02320313 28.35 -1.03515625 27.5 C-1.10713363 18.28689565 -0.66799808 9.18497363 0 0 Z " fill="#000000" transform="translate(1022,559)"/>
<path d="M0 0 C153.78 0 307.56 0 466 0 C466 153.12 466 306.24 466 464 C465.67 464 465.34 464 465 464 C465 458.39 465 452.78 465 447 C464.34 447 463.68 447 463 447 C462.93941406 446.00097656 462.87882812 445.00195312 462.81640625 443.97265625 C462.69072266 442.03712891 462.69072266 442.03712891 462.5625 440.0625 C462.48128906 438.77472656 462.40007812 437.48695313 462.31640625 436.16015625 C462.35080812 433.13976043 462.35080812 433.13976043 461 432 C460.84379445 430.58672053 460.74943827 429.1664541 460.68359375 427.74609375 C460.64169922 426.89208984 460.59980469 426.03808594 460.55664062 425.15820312 C460.51732422 424.26037109 460.47800781 423.36253906 460.4375 422.4375 C460.39431641 421.53580078 460.35113281 420.63410156 460.30664062 419.70507812 C460.20021858 417.47021515 460.09820012 415.23523692 460 413 C459.34 413 458.68 413 458 413 C457.67 408.05 457.34 403.1 457 398 C456.34 398 455.68 398 455 398 C454.67 393.38 454.34 388.76 454 384 C453.34 384 452.68 384 452 384 C451.80664062 383.14277344 451.61328125 382.28554688 451.4140625 381.40234375 C449.80610905 374.18174962 449.80610905 374.18174962 447.8125 367.0625 C446.97644664 363.91122195 446.84171477 361.24484729 447 358 C446.34 358 445.68 358 445 358 C445 356.02 445 354.04 445 352 C444.34 352 443.68 352 443 352 C442.87044922 351.10861328 442.87044922 351.10861328 442.73828125 350.19921875 C441.71794452 344.18016816 439.87259279 339.17396601 437.2421875 333.6796875 C434.83366316 328.48394002 433 323.75098599 433 318 C432.34 318 431.68 318 431 318 C427.71428571 309.57142857 427.71428571 309.57142857 427 305 C426.34 305 425.68 305 425 305 C424.49384702 303.73160474 423.99530901 302.46016898 423.5 301.1875 C423.08234375 300.12595703 423.08234375 300.12595703 422.65625 299.04296875 C422 297 422 297 422 294 C421.34 294 420.68 294 420 294 C420 292.68 420 291.36 420 290 C419.34 290 418.68 290 418 290 C418 288.68 418 287.36 418 286 C417.34 286 416.68 286 416 286 C416 284.68 416 283.36 416 282 C415.34 282 414.68 282 414 282 C412.74335022 279.09399739 412 277.20395416 412 274 C411.34 274 410.68 274 410 274 C409.32591692 272.73308493 408.66099503 271.46129251 408 270.1875 C407.62875 269.47980469 407.2575 268.77210938 406.875 268.04296875 C406 266 406 266 406 263 C405.34 263 404.68 263 404 263 C401 256.375 401 256.375 401 253 C400.34 253 399.68 253 399 253 C398.60167969 252.25234375 398.20335937 251.5046875 397.79296875 250.734375 C397.26316406 249.74953125 396.73335937 248.7646875 396.1875 247.75 C395.66542969 246.77546875 395.14335938 245.8009375 394.60546875 244.796875 C393.10238996 242.02472107 393.10238996 242.02472107 391.30078125 239.828125 C390 238 390 238 390 235 C389.34 235 388.68 235 388 235 C386.9362586 233.37327568 385.94903826 231.69620286 385 230 C383.81981111 228.09960676 382.63215984 226.20382973 381.4375 224.3125 C380.83808594 223.35988281 380.23867188 222.40726563 379.62109375 221.42578125 C378.08191688 218.95190112 378.08191688 218.95190112 376 217 C376 216.01 376 215.02 376 214 C375.34 214 374.68 214 374 214 C374 213.01 374 212.02 374 211 C373.34 211 372.68 211 372 211 C370.13386231 208.78433176 368.3668212 206.56020497 366.625 204.25 C363.58974966 200.25710383 360.59407419 196.51384932 357 193 C355.97695052 191.34738161 354.97383946 189.68208635 354 188 C353.34 187.34 352.68 186.68 352 186 C352 185.01 352 184.02 352 183 C351.38125 182.71125 350.7625 182.4225 350.125 182.125 C348 181 348 181 346 179 C346 178.01 346 177.02 346 176 C345.11634766 175.62101562 345.11634766 175.62101562 344.21484375 175.234375 C341.74033507 173.85528374 340.37809925 172.41362405 338.5625 170.25 C337.95792969 169.5384375 337.35335938 168.826875 336.73046875 168.09375 C335.68469453 166.82843402 334.64404855 165.55882074 333.61328125 164.28125 C330.99471599 161.04315038 328.28440276 158.54541214 325 156 C321.24618178 152.44375116 317.89054504 148.61146333 314.55078125 144.671875 C313.08649533 142.89673637 313.08649533 142.89673637 311 142 C311 141.34 311 140.68 311 140 C310.44183594 139.77054688 309.88367188 139.54109375 309.30859375 139.3046875 C306.37404392 137.64624479 304.39859647 135.55108478 302.0625 133.125 C299.53805315 130.51081238 297.08941753 128.07128036 294.24609375 125.8046875 C292 124 292 124 291 122 C289.33434428 120.99831701 287.66750924 119.99859436 286 119 C283.63042955 116.97681194 281.36530569 114.86596742 279.0859375 112.7421875 C277.02520409 110.80538616 277.02520409 110.80538616 274 110 C272.85152633 108.85152633 271.70647885 107.69935106 270.58203125 106.52734375 C265.59231847 101.71011487 259.76983675 97.80809226 254 94 C252.22508374 92.71394956 250.4547157 91.4216118 248.6875 90.125 C239.70470511 83.48062623 239.70470511 83.48062623 230 78 C230 77.34 230 76.68 230 76 C229.13375 75.7525 228.2675 75.505 227.375 75.25 C223.81207132 73.93039678 221.13861233 72.11515179 218 70 C215.77397385 69.23060319 215.77397385 69.23060319 214 69 C214 68.34 214 67.68 214 67 C213.31035156 66.74347656 212.62070312 66.48695312 211.91015625 66.22265625 C207.4408738 64.34495772 203.29148155 61.91237298 199.05859375 59.55859375 C196.61243341 58.31208293 194.67347163 57.4771722 192 57 C192 56.34 192 55.68 192 55 C191.01 55 190.02 55 189 55 C189 54.34 189 53.68 189 53 C188.41299316 52.8656958 187.82598633 52.7313916 187.22119141 52.59301758 C183.78459592 51.67550929 180.61177105 50.13988757 177.375 48.6875 C171.29918444 45.99197937 165.20011062 43.39956204 159 41 C159 40.34 159 39.68 159 39 C157.68 39 156.36 39 155 39 C155 38.34 155 37.68 155 37 C153.9275 36.938125 152.855 36.87625 151.75 36.8125 C146.87251019 36.20495302 142.76735723 34.36059012 138.29296875 32.3984375 C133.64232766 30.42343215 128.88596825 28.79328378 124.1171875 27.12890625 C121.77065691 26.27909755 119.55960158 25.38229238 117.3125 24.3125 C113.34070984 22.73877183 109.46748806 22.08350632 105.2578125 21.4296875 C103 21 103 21 102 20 C99.67182036 19.63239269 97.3381615 19.29758419 95 19 C95 18.34 95 17.68 95 17 C92.69 17 90.38 17 88 17 C88 16.34 88 15.68 88 15 C87.29875 14.96261719 86.5975 14.92523438 85.875 14.88671875 C80.58619015 14.52023872 76.36818616 13.87483679 71.45703125 11.765625 C65.54484721 9.92335462 59.13880862 9.63325089 53 9 C53 8.34 53 7.68 53 7 C50.36 7 47.72 7 45 7 C45 6.34 45 5.68 45 5 C44.06994141 5.01740234 44.06994141 5.01740234 43.12109375 5.03515625 C35.03667944 5.11753019 27.05704105 4.60889919 19 4 C19 3.34 19 2.68 19 2 C12.73 2 6.46 2 0 2 C0 1.34 0 0.68 0 0 Z " fill="#000000" transform="translate(558,0)"/>
<path d="M0 0 C123.97183099 0 123.97183099 0 142.22265625 18.21875 C147 23.46148111 147 23.46148111 147 26 C147.66 26 148.32 26 149 26 C154.07987236 35.31309932 155.33669427 43.56274858 155.25 54.125 C155.25773438 55.07503906 155.26546875 56.02507812 155.2734375 57.00390625 C155.23544707 70.69945578 149.40811262 79.96965538 140.25 89.79296875 C132.90265487 97 132.90265487 97 129 97 C129 97.99 129 98.98 129 100 C129.763125 100.144375 130.52625 100.28875 131.3125 100.4375 C134 101 134 101 137 102 C137 102.66 137 103.32 137 104 C137.72574219 104.0928125 138.45148438 104.185625 139.19921875 104.28125 C147.47344196 106.40462109 155.12582936 115.26281302 160 122 C166.71551315 133.99437423 168.43932496 149.15855575 165.40673828 162.63671875 C163.94533771 167.56858727 162.07167163 172.295579 160 177 C159.34 177 158.68 177 158 177 C157.814375 177.66 157.62875 178.32 157.4375 179 C153.95145545 186.27522341 148.39074946 190.70585332 141.75 195 C141.13543945 195.39799805 140.52087891 195.79599609 139.88769531 196.20605469 C135.39716185 199 135.39716185 199 132 199 C132 199.66 132 200.32 132 201 C129.00085281 201.65001678 126.00078199 202.29511037 123 202.9375 C122.16082031 203.11990234 121.32164062 203.30230469 120.45703125 203.49023438 C119.62558594 203.66748047 118.79414062 203.84472656 117.9375 204.02734375 C117.18339844 204.18968506 116.42929687 204.35202637 115.65234375 204.51928711 C108.53176221 205.80982697 101.67326275 206.1407314 94.453125 206.11352539 C93.41138123 206.11364593 92.36963745 206.11376646 91.29632568 206.11389065 C87.94752821 206.11314842 84.59878743 206.10555175 81.25 206.09765625 C79.17317736 206.09618469 77.09635434 206.0951653 75.01953125 206.09460449 C67.34634849 206.08937637 59.67317368 206.07541511 52 206.0625 C26.26 206.0315625 26.26 206.0315625 0 206 C0 138.02 0 70.04 0 0 Z " fill="#16395A" transform="translate(428,381)"/>
<path d="M0 0 C1.134375 0.9075 2.26875 1.815 3.4375 2.75 C3.4375 -0.22 3.4375 -3.19 3.4375 -6.25 C8.0575 -6.25 12.6775 -6.25 17.4375 -6.25 C18.70317665 11.60508134 19.64655693 29.40828339 19.6875 47.3125 C19.69249512 48.07485962 19.69749023 48.83721924 19.70263672 49.62268066 C19.75580541 59.45410362 19.57137513 68.59641935 15.4375 77.75 C14.7775 77.75 14.1175 77.75 13.4375 77.75 C13.19386719 78.50023437 12.95023438 79.25046875 12.69921875 80.0234375 C10.16129846 85.50785967 4.20489217 89.13056009 -1.1875 91.625 C-11.87695972 95.18815324 -28.90385074 95.92389122 -39.5625 91.75 C-43.3862941 89.62457915 -46.99832504 87.28422326 -50.5625 84.75 C-49.92641668 81.61198897 -48.85492198 79.22850869 -47.1875 76.5 C-46.76726562 75.79359375 -46.34703125 75.0871875 -45.9140625 74.359375 C-45.24503906 73.56273437 -45.24503906 73.56273437 -44.5625 72.75 C-41.5625 72.75 -41.5625 72.75 -40.10546875 74.11328125 C-39.34169922 74.92345703 -39.34169922 74.92345703 -38.5625 75.75 C-30.43736674 81.33486171 -20.10261283 80.76453274 -10.7421875 79.3125 C-5.16057778 77.79884313 -1.50507841 74.71861601 1.4375 69.75 C3.26027291 65.31973499 3.65987858 61.64655063 3.5625 56.875 C3.54445313 55.72257813 3.52640625 54.57015625 3.5078125 53.3828125 C3.48460937 52.51398437 3.46140625 51.64515625 3.4375 50.75 C2.7775 51.636875 2.1175 52.52375 1.4375 53.4375 C-2.79038908 58.50616247 -8.00002924 61.83106845 -14.5625 62.75 C-25.80479344 63.54732578 -34.43030246 63.44470036 -43.578125 56.140625 C-47.81585117 52.25901027 -50.37972334 48.02590567 -52.5625 42.75 C-53.10197266 41.64591797 -53.10197266 41.64591797 -53.65234375 40.51953125 C-54.85526386 36.85914344 -54.86255351 33.37203507 -54.8125 29.5625 C-54.80355713 28.80509521 -54.79461426 28.04769043 -54.78540039 27.26733398 C-54.56639325 16.65626768 -53.10975172 8.75222789 -45.5625 0.75 C-31.37663945 -10.27008941 -14.41137785 -10.55833585 0 0 Z " fill="#232024" transform="translate(550.5625,718.25)"/>
<path d="M0 0 C0 0.66 0 1.32 0 2 C0.5775 2.24492187 1.155 2.48984375 1.75 2.7421875 C8.36013745 6.43743795 13.46503039 13.9536438 16 21 C18.98264479 33.0111912 17.38311625 45.6626634 11.046875 56.26953125 C4.63495759 65.36055401 -3.35278522 71.89662343 -14.3125 74.5625 C-22.59195516 75.91031828 -30.98160051 75.3660851 -39 73 C-39.66 72.34 -40.32 71.68 -41 71 C-42.093125 70.54625 -43.18625 70.0925 -44.3125 69.625 C-52.41790487 66.2157163 -57.67360718 59.62946341 -61.55859375 51.8984375 C-65.38225605 42.47468056 -67.29781891 30.89345674 -64 21 C-63.34 21 -62.68 21 -62 21 C-62.09474609 19.89785156 -62.09474609 19.89785156 -62.19140625 18.7734375 C-61.84695786 13.78245061 -58.18127118 10.64468469 -55 7 C-54.44828125 6.35289062 -53.8965625 5.70578125 -53.328125 5.0390625 C-39.51014446 -10.02911627 -16.76372618 -9.32551655 0 0 Z " fill="#8FCAEF" transform="translate(523,285)"/>
<path d="M0 0 C5.26258987 0.67469101 10.01940507 2.25886304 15 4 C13.75180826 11.1741952 11.86773495 17.93219906 9.5 24.8125 C9.19191406 25.72708984 8.88382812 26.64167969 8.56640625 27.58398438 C7.14718311 31.77160629 5.66612766 35.90319535 4 40 C4.47050781 39.65066406 4.94101562 39.30132813 5.42578125 38.94140625 C6.04839844 38.48636719 6.67101562 38.03132812 7.3125 37.5625 C7.92738281 37.11003906 8.54226563 36.65757812 9.17578125 36.19140625 C13.15474405 33.59272605 17.17742727 33.81667206 21.75 33.8125 C22.4409375 33.80025391 23.131875 33.78800781 23.84375 33.77539062 C29.04424381 33.76072758 34.59517081 33.92059495 38.703125 37.47265625 C39.13109375 37.97667969 39.5590625 38.48070312 40 39 C41.24502982 39.82009573 42.4954338 40.6320685 43.75 41.4375 C49.65857958 45.94552738 54.13832047 51.7144881 55.36083984 59.21337891 C56.56546684 72.5855655 54.54278098 84.54866282 45.78125 95.0625 C43.90030861 97.10843625 42.04819193 99.11969265 40 101 C39.34 101 38.68 101 38 101 C38 101.66 38 102.32 38 103 C26.12140461 109.13088794 14.45558474 107.83248761 2 104 C2 103.34 2 102.68 2 102 C1.24203125 101.76023437 0.4840625 101.52046875 -0.296875 101.2734375 C-3.42790272 99.79841577 -4.42152 98.52169726 -6.25 95.625 C-7.00023437 94.46871094 -7.00023437 94.46871094 -7.765625 93.2890625 C-8.91434497 91.15884129 -9.54657992 89.36426183 -10 87 C-10.66 87 -11.32 87 -12 87 C-12.33 89.97 -12.66 92.94 -13 96 C-18.23880078 95.44854729 -22.97350697 94.57077907 -28 93 C-27.42696396 85.77974589 -25.83713399 79.69690907 -23.20703125 72.97265625 C-21.91641321 69.66421914 -20.83694749 66.48809327 -20.14453125 63 C-18.89185162 57.21130772 -17.07881935 51.62849807 -15.25 46 C-14.89583008 44.90002686 -14.54166016 43.80005371 -14.17675781 42.66674805 C-11.90794519 35.66442306 -9.52224559 28.7144685 -7.01977539 21.79272461 C-4.99953106 16.14992486 -3.33497903 10.44205374 -1.76171875 4.66015625 C-1 2 -1 2 0 0 Z " fill="#211D21" transform="translate(297,649)"/>
<path d="M0 0 C4.64606575 2.70585477 8.33243097 5.9530864 11.8984375 9.96484375 C11.8984375 10.62484375 11.8984375 11.28484375 11.8984375 11.96484375 C12.5584375 11.96484375 13.2184375 11.96484375 13.8984375 11.96484375 C14.71855062 13.5233613 15.52919963 15.08686091 16.3359375 16.65234375 C16.78839844 17.52246094 17.24085938 18.39257812 17.70703125 19.2890625 C22.50123396 30.05637022 19.72414983 41.37581855 15.8984375 51.96484375 C15.2384375 51.96484375 14.5784375 51.96484375 13.8984375 51.96484375 C13.80175781 52.54105469 13.70507812 53.11726562 13.60546875 53.7109375 C12.74862515 56.44242234 11.49535666 57.90531261 9.5859375 60.02734375 C8.99167969 60.69894531 8.39742188 61.37054687 7.78515625 62.0625 C3.63119975 66.2508578 0.84226652 67.39332173 -5.1015625 67.96484375 C-5.5965625 69.44984375 -5.5965625 69.44984375 -6.1015625 70.96484375 C-9.35154362 70.99394138 -12.60149107 71.01167536 -15.8515625 71.02734375 C-16.77195312 71.03572266 -17.69234375 71.04410156 -18.640625 71.05273438 C-19.53007812 71.05595703 -20.41953125 71.05917969 -21.3359375 71.0625 C-22.15288086 71.06773682 -22.96982422 71.07297363 -23.81152344 71.07836914 C-26.04124385 70.96783396 -27.96290005 70.58539942 -30.1015625 69.96484375 C-30.1015625 69.30484375 -30.1015625 68.64484375 -30.1015625 67.96484375 C-31.0915625 67.92359375 -32.0815625 67.88234375 -33.1015625 67.83984375 C-39.80054759 66.85191262 -44.48441159 62.02400806 -48.5390625 56.90234375 C-50.60474951 53.98575044 -51.87343422 51.61489629 -52.1015625 47.96484375 C-52.7615625 47.96484375 -53.4215625 47.96484375 -54.1015625 47.96484375 C-57.01288037 37.63982109 -56.86780802 23.54087207 -51.60546875 14.140625 C-49.28931945 10.78972848 -46.99011638 7.85339763 -44.1015625 4.96484375 C-43.4415625 4.96484375 -42.7815625 4.96484375 -42.1015625 4.96484375 C-42.1015625 4.30484375 -42.1015625 3.64484375 -42.1015625 2.96484375 C-40.33158776 2.15047507 -38.56055098 1.33841435 -36.7890625 0.52734375 C-35.80292969 0.07488281 -34.81679688 -0.37757813 -33.80078125 -0.84375 C-24.34112151 -5.0191425 -9.3748848 -4.61774065 0 0 Z " fill="#242025" transform="translate(461.1015625,711.03515625)"/>
<path d="M0 0 C7.51364875 -0.08416035 15.02556507 -0.16426291 22.53927612 -0.20700073 C26.03908705 -0.22801986 29.53850296 -0.25605065 33.03808594 -0.30175781 C37.06448939 -0.35400946 41.09048227 -0.37303198 45.1171875 -0.390625 C46.35612762 -0.41127014 47.59506775 -0.43191528 48.87155151 -0.45318604 C56.44312394 -0.45512387 62.22672576 0.58420158 69 4 C69.928125 4.45375 70.85625 4.9075 71.8125 5.375 C76.71379631 9.01596297 79.50537434 12.68261932 80.72265625 18.72265625 C81.83573108 27.86241152 81.31608906 35.76917807 75.6875 43.32421875 C69.58745729 49.38190006 61.30329078 51.13127043 53.01635742 51.11352539 C51.83551071 51.11344986 50.654664 51.11337433 49.43803406 51.11329651 C48.17328751 51.10813522 46.90854095 51.10297394 45.60546875 51.09765625 C44.30297684 51.0962413 43.00048492 51.09482635 41.65852356 51.09336853 C38.20783546 51.08956355 34.75718992 51.07975064 31.30651855 51.06866455 C27.78052354 51.05840689 24.25452139 51.05380669 20.72851562 51.04882812 C13.81897291 51.03865806 6.90954686 51.01908129 0 51 C0 34.17 0 17.34 0 0 Z " fill="#FCFCFC" transform="translate(470,500)"/>
<path d="M0 0 C7.38375 -0.04125 14.7675 -0.0825 22.375 -0.125 C24.6854834 -0.14320801 26.9959668 -0.16141602 29.37646484 -0.18017578 C31.23795338 -0.18602504 33.0994445 -0.19111957 34.9609375 -0.1953125 C35.90300049 -0.20554443 36.84506348 -0.21577637 37.81567383 -0.22631836 C47.37416442 -0.22879529 58.16729569 0.61254029 65.53515625 7.41796875 C71.35911176 14.02297952 71.52391378 20.74339583 71.30859375 29.10546875 C70.76785582 35.92971826 68.55181409 39.75943217 63.6875 44.4375 C60.17968204 47.23919876 57.43842498 47.8188398 53 48 C53 48.66 53 49.32 53 50 C35.51 50 18.02 50 0 50 C0 33.5 0 17 0 0 Z " fill="#F8F9F9" transform="translate(469,416)"/>
<path d="M0 0 C-0.68923891 11.67666201 -1.96860035 23.25918901 -3.3125 34.875 C-3.53551208 36.8183559 -3.75849351 38.76171531 -3.98144531 40.70507812 C-5.35610477 52.64257778 -6.77148104 64.57491357 -8.25 76.5 C-8.33263092 77.17158142 -8.41526184 77.84316284 -8.50039673 78.53509521 C-8.7317722 80.4091697 -8.96733789 82.28272545 -9.203125 84.15625 C-9.39890137 85.71569336 -9.39890137 85.71569336 -9.59863281 87.30664062 C-9.93983969 89.59629654 -10.38605109 91.77060634 -11 94 C-11.66 94 -12.32 94 -13 94 C-13.0928125 95.546875 -13.0928125 95.546875 -13.1875 97.125 C-14.19355605 101.92311345 -15.57950009 103.57950009 -19 107 C-19.66 107 -20.32 107 -21 107 C-21 107.66 -21 108.32 -21 109 C-28.33609861 114.90466474 -36.03266881 114.11070779 -45 114 C-45 109.71 -45 105.42 -45 101 C-43.47375 100.9175 -41.9475 100.835 -40.375 100.75 C-34.620901 100.17214847 -31.16170984 98.31079327 -27.1875 94.0625 C-24.65705302 89.66751314 -24.65360948 84.97203626 -25 80 C-26.49536342 77.33879096 -26.49536342 77.33879096 -28.75 75 C-29.57113281 74.05898438 -30.39226563 73.11796875 -31.23828125 72.1484375 C-31.68510254 71.6440918 -32.13192383 71.13974609 -32.59228516 70.62011719 C-35.13263777 67.69646476 -37.52726004 64.65601238 -39.9375 61.625 C-40.44249023 60.99352051 -40.94748047 60.36204102 -41.46777344 59.71142578 C-45.65996174 54.45980586 -49.76651957 49.14585936 -53.84375 43.8046875 C-54.5553125 42.87914062 -55.266875 41.95359375 -56 41 C-56.7115625 40.07445312 -57.423125 39.14890625 -58.15625 38.1953125 C-59.81231542 35.92830079 -59.81231542 35.92830079 -62 35 C-62.93462622 33.3310246 -63.86673304 31.66054726 -64.78125 29.98046875 C-66.49466597 27.1961678 -68.61418684 24.87524839 -70.828125 22.48046875 C-72 21 -72 21 -72 19 C-70.10787298 18.46585888 -68.21108364 17.94821671 -66.3125 17.4375 C-65.25675781 17.14746094 -64.20101562 16.85742188 -63.11328125 16.55859375 C-59.80579055 15.96515439 -58.12085497 15.77466431 -55 17 C-53.0336121 18.92229849 -51.38322564 20.73855508 -49.6875 22.875 C-49.20748535 23.46144287 -48.7274707 24.04788574 -48.23291016 24.65209961 C-44.65438377 29.06585429 -41.26506921 33.60726919 -37.97265625 38.23828125 C-35.07175043 42.2995494 -32.05201936 46.26949933 -29.046875 50.25390625 C-27.34307967 52.53972326 -25.68973663 54.84715085 -24.0625 57.1875 C-22.29952763 60.04057147 -22.29952763 60.04057147 -20 61 C-20.01015137 60.44054687 -20.02030273 59.88109375 -20.03076172 59.3046875 C-20.10427351 51.83949031 -19.65562852 44.44394609 -19.125 37 C-18.99182373 35.09408081 -18.99182373 35.09408081 -18.85595703 33.1496582 C-18.15218186 23.40008388 -17.22033988 13.69780731 -16 4 C-14.08594633 3.32586789 -12.16863974 2.6609668 -10.25 2 C-9.18265625 1.62875 -8.1153125 1.2575 -7.015625 0.875 C-4 0 -4 0 0 0 Z " fill="#242025" transform="translate(740,677)"/>
<path d="M0 0 C0.70318359 -0.01224609 1.40636719 -0.02449219 2.13085938 -0.03710938 C6.22932735 -0.04863272 9.37811442 0.36333258 13.0625 2.1875 C12.92019192 3.60452513 12.77349254 5.0211096 12.625 6.4375 C12.54378906 7.22640625 12.46257813 8.0153125 12.37890625 8.828125 C12.08615007 11.01114639 11.64185581 13.0648182 11.0625 15.1875 C10.423125 15.0225 9.78375 14.8575 9.125 14.6875 C1.58170634 13.44267626 1.58170634 13.44267626 -5.5 15.625 C-8.40180359 20.79778032 -7.14875706 26.60390036 -5.9375 32.1875 C-5.06867187 32.043125 -4.19984375 31.89875 -3.3046875 31.75 C-2.15226563 31.564375 -0.99984375 31.37875 0.1875 31.1875 C1.32445312 31.001875 2.46140625 30.81625 3.6328125 30.625 C7.0625 30.1875 7.0625 30.1875 13.0625 30.1875 C13.7225 34.1475 14.3825 38.1075 15.0625 42.1875 C12.64674393 42.69228485 10.23005639 43.19147642 7.8125 43.6875 C7.13058594 43.83058594 6.44867187 43.97367188 5.74609375 44.12109375 C2.41616879 44.80001049 -0.52082551 45.1875 -3.9375 45.1875 C-2.58365131 52.83555754 -1.11784731 60.44383604 0.5625 68.02734375 C0.8291748 69.23680664 1.09584961 70.44626953 1.37060547 71.69238281 C1.90373446 74.09576525 2.44409793 76.49755761 2.99267578 78.89746094 C4.71064561 86.66176364 5.66618719 94.24562159 6.0625 102.1875 C5.43931885 102.34089844 4.8161377 102.49429688 4.17407227 102.65234375 C3.09790649 102.91724609 3.09790649 102.91724609 2 103.1875 C-2.03313483 104.18027165 -5.78893096 104.26874493 -9.9375 104.1875 C-10.09605469 102.99640625 -10.25460937 101.8053125 -10.41796875 100.578125 C-12.06003218 88.55238972 -14.04810969 76.62160683 -16.3112793 64.69628906 C-17.34757069 59.11070622 -18.24411265 53.87226425 -17.9375 48.1875 C-23.8775 48.6825 -23.8775 48.6825 -29.9375 49.1875 C-31.52888085 45.01012526 -32.15028058 41.65589215 -31.9375 37.1875 C-28.9675 36.5275 -25.9975 35.8675 -22.9375 35.1875 C-22.98390625 33.82496094 -23.0303125 32.46242188 -23.078125 31.05859375 C-23.11566232 29.24741787 -23.15206037 27.43621814 -23.1875 25.625 C-23.22101562 24.72974609 -23.25453125 23.83449219 -23.2890625 22.91210938 C-23.40319238 15.12274507 -21.55565359 11.11733854 -16.3125 5.25 C-13.9375 3.1875 -13.9375 3.1875 -11.9375 3.1875 C-11.9375 2.5275 -11.9375 1.8675 -11.9375 1.1875 C-8.02129681 -0.08399454 -4.07177771 0.00371174 0 0 Z " fill="#242125" transform="translate(653.9375,667.8125)"/>
<path d="M0 0 C15.88762305 -0.64506139 15.88762305 -0.64506139 22.75 5.4375 C29.2003879 12.78377511 29.58489903 18.32666984 29 28 C27.9991938 34.68538543 25.23746602 38.36355819 20.1328125 42.6875 C17.74631998 44.15611078 15.75834416 44.61556179 13 45 C13 45.66 13 46.32 13 47 C-1.02072277 47.75901657 -1.02072277 47.75901657 -7 43 C-12.68317348 37.54151012 -15.01856988 32.68057015 -15.375 24.75 C-15.16939305 15.84842833 -12.07191473 9.38457044 -5.78125 3.1796875 C-4 2 -4 2 0 2 C0 1.34 0 0.68 0 0 Z " fill="#F6F6F6" transform="translate(307,695)"/>
<path d="M0 0 C5.00934526 4.13815478 7.72746858 8.34949838 8.3984375 14.875 C8.40630964 16.24999966 8.39825833 17.62517453 8.375 19 C8.38660156 19.68578125 8.39820313 20.3715625 8.41015625 21.078125 C8.3736686 27.45130065 6.22697497 31.93142632 2.125 36.6875 C1.65320313 37.24824219 1.18140625 37.80898438 0.6953125 38.38671875 C-3.82989543 42.692965 -7.82627386 43.49991735 -13.9375 43.4375 C-14.97293945 43.4674707 -14.97293945 43.4674707 -16.02929688 43.49804688 C-21.97028915 43.4924156 -25.38576502 41.48098514 -29.609375 37.47265625 C-35.60135008 30.06476925 -35.79979704 23.28372011 -35 14 C-33.38668425 6.76423055 -30.19538208 2.04538647 -24 -2 C-16.41528745 -6.50982909 -7.12436898 -4.33105204 0 0 Z " fill="#F7F7F7" transform="translate(457,725)"/>
<path d="M0 0 C2.2172136 1.47570724 4.21225727 2.97706143 6.18359375 4.765625 C6.73273437 5.25546875 7.281875 5.7453125 7.84765625 6.25 C12.03415889 10.99959948 11.55320169 19.05307401 11.43359375 24.99609375 C10.87372421 31.19839853 7.72300793 34.76661727 3.18359375 38.765625 C-2.6446079 42.74586027 -7.89777749 43.26478781 -14.81640625 42.765625 C-17.24457983 42.25606303 -19.46112014 41.56742453 -21.81640625 40.765625 C-21.81640625 40.105625 -21.81640625 39.445625 -21.81640625 38.765625 C-22.39390625 38.53875 -22.97140625 38.311875 -23.56640625 38.078125 C-27.25476501 35.92658239 -29.36411078 33.31096785 -30.56640625 29.203125 C-31.74308649 13.02377164 -31.74308649 13.02377164 -27.81640625 6.765625 C-20.30264703 -1.01424652 -10.62423836 -4.65639296 0 0 Z " fill="#F9F9F9" transform="translate(542.81640625,725.234375)"/>
<path d="M0 0 C5.21979128 -0.1799928 9.07262981 0.02905192 14 2 C14.21720176 7.21284227 13.98828382 11.73869781 12.56494141 16.80664062 C11.91589521 19.32653303 11.4953325 21.83642787 11.0859375 24.40625 C9.9804384 31.18400008 8.75246962 37.93555014 7.5 44.6875 C7.18095703 46.42483398 7.18095703 46.42483398 6.85546875 48.19726562 C5.8340598 53.71475387 4.7650018 59.20761606 3.51806641 64.6784668 C2.41451969 69.62362503 1.43569364 74.5952278 0.4375 79.5625 C0.21642578 80.64724609 -0.00464844 81.73199219 -0.23242188 82.84960938 C-0.44576172 83.91115234 -0.65910156 84.97269531 -0.87890625 86.06640625 C-1.0704126 87.01459229 -1.26191895 87.96277832 -1.45922852 88.93969727 C-2.10695573 92.60527769 -2.53829696 96.30637567 -3 100 C-10.92 99.01 -10.92 99.01 -19 98 C-18.02454394 89.30957329 -16.62915277 80.94949419 -14.625 72.4375 C-12.22945534 62.25599516 -10.30275655 52.03641548 -8.48828125 41.73779297 C-3.4249545 13.34771986 -3.4249545 13.34771986 0 0 Z " fill="#201D20" transform="translate(383,671)"/>
<path d="M0 0 C1.84046961 11.99986188 3.39371415 23.95951818 4.35302734 36.06494141 C4.4605835 37.38437744 4.4605835 37.38437744 4.5703125 38.73046875 C4.62977051 39.50801514 4.68922852 40.28556152 4.75048828 41.08666992 C4.90437307 43.08191154 4.90437307 43.08191154 6 45 C7.7086528 53.35618521 8.27605844 61.48819799 8 70 C2.61509359 70.91657981 -2.54230189 71.11138159 -8 71 C-9.06589997 67.42821287 -9.26141133 63.96307737 -9.46484375 60.25 C-9.54348304 58.90493991 -9.62226386 57.5598881 -9.70117188 56.21484375 C-9.81965655 54.12007363 -9.93613426 52.02522601 -10.04956055 49.93017578 C-10.47611607 42.15594688 -11.12517531 34.55425798 -12.52075195 26.88085938 C-13.35494137 21.86637386 -13.72534148 16.81452514 -14.125 11.75 C-14.21136719 10.70714844 -14.29773438 9.66429687 -14.38671875 8.58984375 C-14.59558648 6.06022344 -14.79996617 3.53033147 -15 1 C-9.92928099 0.28832014 -5.11791642 -0.10662326 0 0 Z " fill="#222023" transform="translate(606,708)"/>
<path d="M0 0 C0.66 0 1.32 0 2 0 C2.51046875 1.17755859 2.51046875 1.17755859 3.03125 2.37890625 C8.05320028 13.26425062 13.78827324 18.82155554 25 23 C25 23.66 25 24.32 25 25 C24.21496094 25.3403125 23.42992187 25.680625 22.62109375 26.03125 C11.73574938 31.05320028 6.17844446 36.78827324 2 48 C1.34 48 0.68 48 0 48 C-0.3403125 47.21496094 -0.680625 46.42992187 -1.03125 45.62109375 C-6.05320028 34.73574938 -11.78827324 29.17844446 -23 25 C-23 24.34 -23 23.68 -23 23 C-22.21496094 22.6596875 -21.42992187 22.319375 -20.62109375 21.96875 C-9.73574938 16.94679972 -4.17844446 11.21172676 0 0 Z " fill="#7D7D7D" transform="translate(967,944)"/>
<path d="M0 0 C4.00942366 0.86519142 5.59160593 2.30500826 8.2265625 5.48046875 C8.92448858 8.97009916 9.05325153 11.12687901 7.16015625 14.2265625 C5.39253137 16.42685974 3.76962323 18.20893839 1.2265625 19.48046875 C-2.95487761 19.87494423 -5.08289798 19.93082061 -8.6484375 17.60546875 C-11.56054408 14.69336217 -11.73412055 13.88019105 -12.1484375 9.66796875 C-12.08134861 6.31962311 -11.75282497 5.44855257 -9.8359375 2.48046875 C-6.27628887 0.15580025 -4.18006664 -0.25863289 0 0 Z " fill="#2E2B2F" transform="translate(597.7734375,676.51953125)"/>
<path d="M0 0 C0.66 0 1.32 0 2 0 C2.02684312 2.81256281 2.04676188 5.62487241 2.0625 8.4375 C2.07087891 9.23994141 2.07925781 10.04238281 2.08789062 10.86914062 C2.0965143 12.91295221 2.0522815 14.95683902 2 17 C1.67 17.33 1.34 17.66 1 18 C0.76572222 20.01594582 0.58663876 22.038474 0.4375 24.0625 C0.35371094 25.16722656 0.26992188 26.27195312 0.18359375 27.41015625 C0.12300781 28.26480469 0.06242188 29.11945312 0 30 C-0.33 30 -0.66 30 -1 30 C-1.14141393 19.94389808 -0.72904559 10.02437685 0 0 Z " fill="#343334" transform="translate(1022,559)"/>
<path d="M0 0 C2.912575 0.08566397 4.56798024 0.57910955 6.66796875 2.625 C8.16091772 4.38391375 9.60436262 6.16313019 11 8 C10.67 8.66 10.34 9.32 10 10 C9.34 10 8.68 10 8 10 C8 9.01 8 8.02 8 7 C7.34 7 6.68 7 6 7 C6 9.31 6 11.62 6 14 C4.68 13.67 3.36 13.34 2 13 C2.99 13 3.98 13 5 13 C4.67 12.319375 4.34 11.63875 4 10.9375 C2.82692685 7.49159762 2.85819507 4.61602578 3 1 C2.01 0.67 1.02 0.34 0 0 Z " fill="#BAB9BD" transform="translate(664,697)"/>
<path d="M0 0 C0.87840996 3.09720845 0.99435406 4.90645403 0 8 C0.99 8.33 1.98 8.66 3 9 C-1.75 13 -1.75 13 -4 13 C-3.27991594 8.39146203 -1.68704061 4.32762591 0 0 Z " fill="#BEBBBE" transform="translate(305,676)"/>
<path d="M0 0 C0.33 0 0.66 0 1 0 C1.19658808 1.41543415 1.38187546 2.83244031 1.5625 4.25 C1.66691406 5.03890625 1.77132813 5.8278125 1.87890625 6.640625 C2.13167856 11.56560803 -0.04818215 15.58719443 -2 20 C-3.31052767 15.69577494 -2.45785552 12.0629466 -1.5625 7.75 C-1.41490234 7.00492188 -1.26730469 6.25984375 -1.11523438 5.4921875 C-0.7511306 3.65992335 -0.37658591 1.82973947 0 0 Z " fill="#443F41" transform="translate(378,694)"/>
<path d="M0 0 C0.66 0.33 1.32 0.66 2 1 C-0.97 3.97 -3.94 6.94 -7 10 C-7.33 9.34 -7.66 8.68 -8 8 C-3.375 2.25 -3.375 2.25 0 0 Z " fill="#CACBCF" transform="translate(433,723)"/>
<path d="M0 0 C1.32 0.33 2.64 0.66 4 1 C3.67 1.33 3.34 1.66 3 2 C2.92728259 4.35313555 2.91629132 6.70833668 2.9375 9.0625 C2.94652344 10.35285156 2.95554687 11.64320313 2.96484375 12.97265625 C2.97644531 13.97167969 2.98804688 14.97070312 3 16 C0.96780512 12.59648662 0.63108961 9.6767073 0.375 5.75 C0.30023437 4.67234375 0.22546875 3.5946875 0.1484375 2.484375 C0.09945312 1.66453125 0.05046875 0.8446875 0 0 Z " fill="#BEBFC2" transform="translate(650,713)"/>
<path d="M0 0 C0.66 0 1.32 0 2 0 C0.44499019 3.81684226 -2.03595495 6.19195732 -5 9 C-5.66 8.67 -6.32 8.34 -7 8 C-5.88200014 6.66079162 -4.75538103 5.32877444 -3.625 4 C-2.68527344 2.88625 -2.68527344 2.88625 -1.7265625 1.75 C-1.15679687 1.1725 -0.58703125 0.595 0 0 Z " fill="#D9D9D9" transform="translate(137,162)"/>
<path d="M0 0 C0.33 0 0.66 0 1 0 C1.17700355 4.60209225 1.10814567 6.78370866 -1 11 C-1.33 8.03 -1.66 5.06 -2 2 C-1.34 2 -0.68 2 0 2 C0 1.34 0 0.68 0 0 Z " fill="#5A575A" transform="translate(729,760)"/>
<path d="M0 0 C0.66 0 1.32 0 2 0 C2.66 1.98 3.32 3.96 4 6 C2.68 5.67 1.36 5.34 0 5 C-0.33 5.66 -0.66 6.32 -1 7 C-0.67 4.69 -0.34 2.38 0 0 Z " fill="#C0BCC5" transform="translate(285,736)"/>
<path d="M0 0 C1.33332095 2.6666419 0.67102033 4.16680303 0 7 C-1.32 7 -2.64 7 -4 7 C-3.6875 4.625 -3.6875 4.625 -3 2 C-2.01 1.34 -1.02 0.68 0 0 Z " fill="#2F2A2E" transform="translate(273,735)"/>
<path d="M0 0 C1.32 0 2.64 0 4 0 C4.33 0.99 4.66 1.98 5 3 C2.525 4.485 2.525 4.485 0 6 C0 4.02 0 2.04 0 0 Z " fill="#292629" transform="translate(622,705)"/>
<path d="M0 0 C0.66 1.32 1.32 2.64 2 4 C0.02 6.97 0.02 6.97 -2 10 C-3 8 -3 8 -2.44140625 6.0546875 C-2.15136719 5.33539062 -1.86132812 4.61609375 -1.5625 3.875 C-1.27503906 3.15054688 -0.98757813 2.42609375 -0.69140625 1.6796875 C-0.46324219 1.12539063 -0.23507812 0.57109375 0 0 Z " fill="#5D595F" transform="translate(280,702)"/>
<path d="M0 0 C-2.31 1.32 -4.62 2.64 -7 4 C-7.99 3.34 -8.98 2.68 -10 2 C-3.375 -1.125 -3.375 -1.125 0 0 Z " fill="#424145" transform="translate(433,710)"/>
</svg>
